{
 "asset": {
  "version": "2.0",
  "generator": "hand-written test fixture"
 },
 "extensionsUsed": [
  "KHR_lights_punctual"
 ],
 "extensions": {
  "KHR_lights_punctual": {
   "lights": [
    {
     "type": "point",
     "color": [
      1,
      0.5,
      0.25
     ],
     "intensity": 50
    }
   ]
  }
 },
 "scene": 0,
 "scenes": [
  {
   "nodes": [
    0,
    2,
    3
   ]
  }
 ],
 "nodes": [
  {
   "name": "parent",
   "children": [
    1
   ]
  },
  {
   "name": "child",
   "translation": [
    1,
    0,
    0
   ],
   "mesh": 0
  },
  {
   "name": "cam",
   "translation": [
    0,
    0,
    10
   ],
   "camera": 0
  },
  {
   "name": "lamp",
   "translation": [
    0,
    5,
    0
   ],
   "extensions": {
    "KHR_lights_punctual": {
     "light": 0
    }
   }
  }
 ],
 "meshes": [
  {
   "primitives": [
    {
     "attributes": {
      "POSITION": 0
     },
     "indices": 1
    }
   ]
  }
 ],
 "cameras": [
  {
   "type": "perspective",
   "perspective": {
    "yfov": 0.5,
    "znear": 0.1
   }
  }
 ],
 "animations": [
  {
   "name": "move",
   "samplers": [
    {
     "input": 2,
     "output": 3,
     "interpolation": "CUBICSPLINE"
    },
    {
     "input": 4,
     "output": 5,
     "interpolation": "STEP"
    }
   ],
   "channels": [
    {
     "sampler": 0,
     "target": {
      "node": 0,
      "path": "translation"
     }
    },
    {
     "sampler": 1,
     "target": {
      "node": 1,
      "path": "rotation"
     }
    }
   ]
  }
 ],
 "accessors": [
  {
   "bufferView": 0,
   "componentType": 5126,
   "count": 4,
   "type": "VEC3",
   "min": [
    0,
    0,
    0
   ],
   "max": [
    1,
    1,
    0
   ]
  },
  {
   "bufferView": 1,
   "componentType": 5123,
   "count": 6,
   "type": "SCALAR"
  },
  {
   "bufferView": 2,
   "componentType": 5126,
   "count": 2,
   "type": "SCALAR",
   "min": [
    0
   ],
   "max": [
    2
   ]
  },
  {
   "bufferView": 3,
   "componentType": 5126,
   "count": 6,
   "type": "VEC3"
  },
  {
   "bufferView": 4,
   "componentType": 5126,
   "count": 2,
   "type": "SCALAR",
   "min": [
    0
   ],
   "max": [
    1
   ]
  },
  {
   "bufferView": 5,
   "componentType": 5126,
   "count": 2,
   "type": "VEC4"
  }
 ],
 "bufferViews": [
  {
   "buffer": 0,
   "byteOffset": 0,
   "byteLength": 48,
   "target": 34962
  },
  {
   "buffer": 0,
   "byteOffset": 48,
   "byteLength": 12,
   "target": 34963
  },
  {
   "buffer": 0,
   "byteOffset": 60,
   "byteLength": 8
  },
  {
   "buffer": 0,
   "byteOffset": 68,
   "byteLength": 72
  },
  {
   "buffer": 0,
   "byteOffset": 140,
   "byteLength": 8
  },
  {
   "buffer": 0,
   "byteOffset": 148,
   "byteLength": 32
  }
 ],
 "buffers": [
  {
   "byteLength": 180,
   "uri": "data:application/octet-stream;base64,"
  }
 ]
}
